# xmcd CD database file
#
# Track frame offsets:
#	150
#	21492
#	38417
#	60632
#	70441
#	93983
#	113788
#	118705
#	137160
#	155383
#	161338
#	184278
#	190638
#
# Disc length: 2845 seconds
#
# Revision: 0
# Processed by: cddbd v1.5.2PL0 Copyright (c) Steve Scherf et al.
# Submitted via: CDex 1.51
#
DISCID=ac0b1b0d
DTITLE=Contrarian - Eldritch Musicks
DYEAR=2009
DGENRE=New Age
TTITLE0=Sunken City
TTITLE1=For Lavina
TTITLE2=Dweller on the Threshold
TTITLE3=Eldritch I
TTITLE4=The Cove
TTITLE5=Dusk Lattitudes
TTITLE6=Eldritch II
TTITLE7=Haunter in the Dark
TTITLE8=Crimson Village
TTITLE9=Eldritch III
TTITLE10=Nyarlathotep
TTITLE11=Eldritch IV
TTITLE12=Brothers of the Yellow Sign
EXTD=YEAR: 2009
EXTT0=
EXTT1=
EXTT2=
EXTT3=
EXTT4=
EXTT5=
EXTT6=
EXTT7=
EXTT8=
EXTT9=
EXTT10=
EXTT11=
EXTT12=
PLAYORDER=
